<svg height="464pt" viewBox="-24 0 464 464" width="464pt" xmlns="http://www.w3.org/2000/svg"><path d="m16 0h16c8.835938 0 16 7.164062 16 16v320h-48v-320c0-8.835938 7.164062-16 16-16zm0 0" fill="#db527d"/><path d="m0 336h384v128h-352c-17.671875 0-32-14.328125-32-32zm0 0" fill="#f7d289"/><path d="m48 368h336v64h-336c-8.835938 0-16-7.164062-16-16v-32c0-8.835938 7.164062-16 16-16zm0 0" fill="#d3843d"/><path d="m48 16h336v320h-336zm0 0" fill="#f9bb4b"/><path d="m104 400h48v64h-48zm0 0" fill="#32b1cc"/><g fill="#195c85"><path d="m56 392h176v16h-176zm0 0"/><path d="m248 392h16v16h-16zm0 0"/><path d="m304 392h80v16h-80zm0 0"/></g><path d="m384 48h32v48h-32zm0 0" fill="#7d8d9c"/><path d="m384 128h32v48h-32zm0 0" fill="#5a6470"/><path d="m384 208h32v48h-32zm0 0" fill="#7d8d9c"/><path d="m80 96h272v160h-272zm0 0" fill="#32b1cc"/><path d="m137.753906 120-25.515625 102.0625 15.523438 3.875 10.484375-41.9375h43.507812l10.484375 41.9375 15.523438-3.875-25.515625-102.0625zm4.492188 48 8-32h19.507812l8 32zm0 0" fill="#e33e5c"/><path d="m296 208v-64h-64v16h48v16h-48v48h80v-16zm-16 0h-32v-16h32zm0 0" fill="#e33e5c"/><path d="m88 72h-16v-32h48v16h-32zm0 0" fill="#f1c056"/><path d="m344 40h16v16h-16zm0 0" fill="#f1c056"/></svg>